<svg xmlns="http://www.w3.org/2000/svg" width="1600" height="900" viewBox="0 0 1600 900"><rect width="1600" height="900" fill="#fffefa"/><style>text{font-family:Arial,Helvetica,sans-serif;fill:#111}.title{font-size:38px;font-weight:700}.sub{font-size:22px;fill:#66625b}.axis{font-size:18px;fill:#111}.small{font-size:16px;fill:#66625b}.value{font-size:24px;font-weight:700}</style><text class="title" x="110" y="82">ShotCount execution uplift by category</text><text class="sub" x="110" y="120">GPT-5.6 Luna · 60 fresh production-path runs · positive uplift only</text><circle cx="260" cy="180" r="11" fill="#efb6ce" stroke="#6f365e" stroke-width="2"/><text class="axis" x="282" y="187">Primitive Luna</text><circle cx="510" cy="180" r="11" fill="#bd4f91"/><text class="axis" x="532" y="187">Harness uplift</text><rect x="250" y="300" width="150" height="440" fill="#efb6ce" stroke="#6f365e" stroke-width="2" rx="4"/><text class="value" x="325" y="282" text-anchor="middle">100.0%</text><text class="axis" x="325" y="782" text-anchor="middle">Email</text><rect x="520" y="300" width="150" height="440" fill="#efb6ce" stroke="#6f365e" stroke-width="2" rx="4"/><text class="value" x="595" y="282" text-anchor="middle">100.0%</text><text class="axis" x="595" y="782" text-anchor="middle">Calendar</text><rect x="790" y="388" width="150" height="352" fill="#efb6ce" stroke="#6f365e" stroke-width="2" rx="4"/><rect x="790" y="329.33333333333337" width="150" height="58.66666666666666" fill="#bd4f91" rx="4"/><text class="value" x="865" y="311.33333333333337" text-anchor="middle">93.3%</text><text class="axis" x="865" y="782" text-anchor="middle">Cross-tool</text><rect x="1060" y="388" width="150" height="352" fill="#efb6ce" stroke="#6f365e" stroke-width="2" rx="4"/><rect x="1060" y="329.33333333333337" width="150" height="58.66666666666666" fill="#bd4f91" rx="4"/><text class="value" x="1135" y="311.33333333333337" text-anchor="middle">93.3%</text><text class="axis" x="1135" y="782" text-anchor="middle">Browser</text><line x1="230" x2="1480" y1="740" y2="740" stroke="#d8d4cc"/><text class="small" x="215" y="746" text-anchor="end">0.0%</text><line x1="230" x2="1480" y1="652" y2="652" stroke="#d8d4cc"/><text class="small" x="215" y="658" text-anchor="end">20.0%</text><line x1="230" x2="1480" y1="564" y2="564" stroke="#d8d4cc"/><text class="small" x="215" y="570" text-anchor="end">40.0%</text><line x1="230" x2="1480" y1="475.99999999999994" y2="475.99999999999994" stroke="#d8d4cc"/><text class="small" x="215" y="481.99999999999994" text-anchor="end">60.0%</text><line x1="230" x2="1480" y1="388" y2="388" stroke="#d8d4cc"/><text class="small" x="215" y="394" text-anchor="end">80.0%</text><line x1="230" x2="1480" y1="300" y2="300" stroke="#d8d4cc"/><text class="small" x="215" y="306" text-anchor="end">100.0%</text><text class="axis" x="800" y="805" text-anchor="middle">Live task success by use-case category</text><text class="small" x="110" y="858">Light = primitive Luna baseline. Dark = measured positive conditional-harness uplift.</text></svg>