<svg xmlns="http://www.w3.org/2000/svg" width="1600" height="1160" viewBox="0 0 1600 1160">
  <rect width="1600" height="1160" fill="#FFFFFF"/>
  <style>text{font-family:Arial,Helvetica,sans-serif;fill:#111}.title{font-size:34px;font-weight:700}.subtitle{font-size:32px;font-weight:700}.axis{font-size:21px;font-weight:400}.label{font-size:23px;font-weight:400}.value{font-size:23px;font-weight:400}.note{font-size:18px;font-weight:400;fill:#555}.brand{font-size:35px;font-weight:400}</style>
  <text class="title" x="112" y="102">Distance to Done</text>
  <text class="subtitle" x="112" y="142">Average progress toward the intended outcome</text>
  <text class="brand" x="1480" y="118" text-anchor="end">✦</text>
  <text class="axis" x="207" y="842" text-anchor="end">0</text><text class="axis" x="207" y="741" text-anchor="end">1</text><text class="axis" x="207" y="640" text-anchor="end">2</text><text class="axis" x="207" y="539" text-anchor="end">3</text><text class="axis" x="207" y="438" text-anchor="end">4</text><text class="axis" x="207" y="337" text-anchor="end">5</text><line x1="226" y1="835" x2="1450" y2="835" stroke="#111" stroke-width="1"/>
    <text class="axis" transform="translate(145 582.5) rotate(-90)" text-anchor="middle">Distance to Done (0–5)</text><rect x="240" y="330" width="150" height="505" rx="4" fill="#E87DB9" fill-opacity="0.72" stroke="#E87DB9" stroke-width="2"/>
      <text class="value" x="315" y="322" text-anchor="middle">5.00</text>
      <text class="label" transform="translate(282 880) rotate(-48)" text-anchor="end">Email</text><rect x="464" y="330" width="150" height="505" rx="4" fill="#68C9C1" fill-opacity="0.72" stroke="#68C9C1" stroke-width="2"/>
      <text class="value" x="539" y="322" text-anchor="middle">5.00</text>
      <text class="label" transform="translate(506 880) rotate(-48)" text-anchor="end">Calendar</text><rect x="688" y="330" width="150" height="505" rx="4" fill="#7867D8" fill-opacity="0.72" stroke="#7867D8" stroke-width="2"/>
      <text class="value" x="763" y="322" text-anchor="middle">5.00</text>
      <text class="label" transform="translate(730 880) rotate(-48)" text-anchor="end">Cross-tool</text><rect x="912" y="356.93333333333334" width="150" height="478.06666666666666" rx="4" fill="#F2A65A" fill-opacity="0.72" stroke="#F2A65A" stroke-width="2"/>
      <text class="value" x="987" y="342.93333333333334" text-anchor="middle">4.73</text>
      <text class="label" transform="translate(954 880) rotate(-48)" text-anchor="end">Browser</text><rect x="1136" y="336.73333333333335" width="150" height="498.26666666666665" rx="4" fill="#B9DC73" fill-opacity="0.72" stroke="#B9DC73" stroke-width="2"/>
      <text class="value" x="1211" y="322.73333333333335" text-anchor="middle">4.93</text>
      <text class="label" transform="translate(1178 880) rotate(-48)" text-anchor="end">Overall</text><text class="note" x="112" y="1110">5 categories · score out of five</text></svg>
