<svg xmlns="http://www.w3.org/2000/svg" width="1600" height="900" viewBox="0 0 1600 900">
  <rect width="1600" height="900" fill="#F7F7F4"/>
  <style>text{font-family:Inter,ui-sans-serif,-apple-system,BlinkMacSystemFont,"Segoe UI",sans-serif;fill:#111}.title{font-size:56px;font-weight:740;letter-spacing:-2px}.sub{font-size:22px;fill:#666}.label{font-size:24px;font-weight:650}.value{font-size:25px;font-weight:760}.small{font-size:18px;fill:#666}.note{font-size:18px;fill:#777}</style>
  <text class="title" x="100" y="110">Fourteen of fifteen original failure slots recovered</text><text class="sub" x="100" y="155">Failure counts in the official 60-run result sets</text><text class="label" x="100" y="303">Browser timeout/network</text><rect x="520" y="275" width="760" height="36" fill="#E2E2DE"/><rect x="520" y="275" width="760" height="36" fill="#A7AAAC"/><text class="value" x="1340" y="304">9</text><rect x="520" y="328" width="760" height="36" fill="#E2E2DE"/><rect x="520" y="328" width="84.44444444444444" height="36" fill="#111"/><text class="value" x="1340" y="357">1</text><text class="label" x="100" y="458">Cross-tool verification</text><rect x="520" y="430" width="760" height="36" fill="#E2E2DE"/><rect x="520" y="430" width="253.33333333333334" height="36" fill="#A7AAAC"/><text class="value" x="1340" y="459">3</text><rect x="520" y="483" width="760" height="36" fill="#E2E2DE"/><rect x="520" y="483" width="0" height="36" fill="#111"/><text class="value" x="1340" y="512">0</text><text class="label" x="100" y="613">Missing-context handling</text><rect x="520" y="585" width="760" height="36" fill="#E2E2DE"/><rect x="520" y="585" width="253.33333333333334" height="36" fill="#A7AAAC"/><text class="value" x="1340" y="614">3</text><rect x="520" y="638" width="760" height="36" fill="#E2E2DE"/><rect x="520" y="638" width="0" height="36" fill="#111"/><text class="value" x="1340" y="667">0</text><text class="note" x="100" y="850">The remaining failure was a transient Google Flights result timeout; the post-v2 targeted regression passed after bounded read recovery.</text></svg>
