<svg xmlns="http://www.w3.org/2000/svg" width="1600" height="1000"><rect width="100%" height="100%" fill="#fff"/><text x="90" y="78" font-family="Arial" font-size="36" font-weight="700">Distance-to-Done vs inference cost</text><text x="90" y="114" font-family="Arial" font-size="20" fill="#555">Primitive Luna vs final ShotCount harness</text><line x1="190" x2="1420" y1="780" y2="780" stroke="#ddd"/><text x="175" y="786" text-anchor="end" font-size="18">4.50</text><line x1="190" x2="1420" y1="645" y2="645" stroke="#ddd"/><text x="175" y="651" text-anchor="end" font-size="18">4.63</text><line x1="190" x2="1420" y1="510" y2="510" stroke="#ddd"/><text x="175" y="516" text-anchor="end" font-size="18">4.75</text><line x1="190" x2="1420" y1="375" y2="375" stroke="#ddd"/><text x="175" y="381" text-anchor="end" font-size="18">4.88</text><line x1="190" x2="1420" y1="240" y2="240" stroke="#ddd"/><text x="175" y="246" text-anchor="end" font-size="18">5.00</text><polyline points="924.1834857142858,456.00000000000017 1204.4917,528" fill="none" stroke="#222" stroke-width="3"/><circle cx="924.1834857142858" cy="456.00000000000017" r="13" fill="#f0b4cf" stroke="#8d3f6c"/><text x="944.1834857142858" y="442.00000000000017" font-family="Arial" font-size="22" font-weight="600">Primitive Luna</text><text x="944.1834857142858" y="470.00000000000017" font-family="Arial" font-size="17" fill="#555">$0.418 · 4.80/5</text><circle cx="1204.4917" cy="528" r="13" fill="#bd4f92" stroke="#8d3f6c"/><text x="1224.4917" y="514" font-family="Arial" font-size="22" font-weight="600">Luna + final harness</text><text x="1224.4917" y="542" font-family="Arial" font-size="17" fill="#555">$0.577 · 4.73/5</text><text x="805" y="900" text-anchor="middle" font-family="Arial" font-size="18">Measured inference cost · 60 runs</text><text transform="translate(65 540) rotate(-90)" text-anchor="middle" font-family="Arial" font-size="18">Distance-to-Done</text></svg>