<svg xmlns="http://www.w3.org/2000/svg" width="1600" height="1000" viewBox="0 0 1600 1000"><rect width="1600" height="1000" fill="#FBFAF6"/><style>text{font-family:Inter,Arial,sans-serif;fill:#171717}.title{font-size:44px;font-weight:700;letter-spacing:-1.1px}.subtitle{font-size:22px;fill:#66635D}.axis{font-size:17px;fill:#66635D}.label{font-size:21px;font-weight:650}.value{font-size:25px;font-weight:700}.big{font-size:54px;font-weight:750}.note{font-size:16px;fill:#66635D}</style><text class="title" x="105" y="92">Category reliability before and after</text><text class="subtitle" x="105" y="132">Exact same 20-task benchmark · three fresh runs per task</text><circle cx="390" cy="190" r="9" fill="#7357D9"/><text class="axis" x="410" y="197">Luna primitive</text><circle cx="610" cy="190" r="9" fill="#E04F78"/><text class="axis" x="630" y="197">Luna + Harness</text><text class="label" x="105" y="267">Email</text><line x1="1430" x2="1430" y1="260" y2="260" stroke="#171717" stroke-width="3"/><circle cx="1420" cy="260" r="12" fill="#7357D9"/><circle cx="1440" cy="260" r="12" fill="#E04F78"/><text class="axis" x="1430" y="236" text-anchor="middle">both 100.0%</text><text class="label" x="105" y="412">Calendar</text><line x1="1430" x2="1430" y1="405" y2="405" stroke="#171717" stroke-width="3"/><circle cx="1420" cy="405" r="12" fill="#7357D9"/><circle cx="1440" cy="405" r="12" fill="#E04F78"/><text class="axis" x="1430" y="381" text-anchor="middle">both 100.0%</text><text class="label" x="105" y="557">Cross-tool</text><line x1="1222" x2="1291.3333333333335" y1="550" y2="550" stroke="#171717" stroke-width="3"/><circle cx="1222" cy="550" r="12" fill="#7357D9"/><circle cx="1291.3333333333335" cy="550" r="12" fill="#E04F78"/><text class="axis" x="1222" y="526" text-anchor="middle">80.0%</text><text class="axis" x="1291.3333333333335" y="589" text-anchor="middle">86.7%</text><text class="label" x="105" y="702">Browser</text><line x1="1222" x2="1014" y1="695" y2="695" stroke="#171717" stroke-width="3"/><circle cx="1222" cy="695" r="12" fill="#7357D9"/><circle cx="1014" cy="695" r="12" fill="#E04F78"/><text class="axis" x="1222" y="671" text-anchor="middle">80.0%</text><text class="axis" x="1014" y="734" text-anchor="middle">60.0%</text><text class="axis" x="1014" y="870" text-anchor="middle">60.0%</text><text class="axis" x="1118" y="870" text-anchor="middle">70.0%</text><text class="axis" x="1222" y="870" text-anchor="middle">80.0%</text><text class="axis" x="1326" y="870" text-anchor="middle">90.0%</text><text class="axis" x="1430" y="870" text-anchor="middle">100.0%</text><text class="note" x="105" y="958">Email and Calendar stayed perfect; Cross-tool improved; Browser regressed under provider timeouts.</text></svg>
