<svg xmlns="http://www.w3.org/2000/svg" width="1600" height="1000" viewBox="0 0 1600 1000"><rect width="100%" height="100%" fill="#fff"/><style>text{font-family:Arial,Helvetica,sans-serif;fill:#111}.title{font-size:36px;font-weight:700}.sub{font-size:20px;fill:#555}.axis{font-size:18px;fill:#555}.lab{font-size:20px;font-weight:600}.small{font-size:17px;fill:#555}.grid{stroke:#ddd;stroke-width:1}</style><text class="title" x="90" y="78">Execution precision vs inference cost</text><text class="sub" x="90" y="114">Same frozen 60-run benchmark · model is the only changed variable</text><line class="grid" x1="190" x2="1420" y1="780" y2="780"/><text class="axis" x="175" y="786" text-anchor="end">96.0%</text><line class="grid" x1="190" x2="1420" y1="645.0000000000006" y2="645.0000000000006"/><text class="axis" x="175" y="651.0000000000006" text-anchor="end">97.2%</text><line class="grid" x1="190" x2="1420" y1="510" y2="510"/><text class="axis" x="175" y="516" text-anchor="end">98.5%</text><line class="grid" x1="190" x2="1420" y1="374.9999999999994" y2="374.9999999999994"/><text class="axis" x="175" y="380.9999999999994" text-anchor="end">99.8%</text><line class="grid" x1="190" x2="1420" y1="240" y2="240"/><text class="axis" x="175" y="246" text-anchor="end">101.0%</text><polyline points="1328.79755,348 791.64425,348 613.3646333333335,348" fill="none" stroke="#222" stroke-width="3"/><circle cx="1328.79755" cy="348" r="12" fill="#4969d8"/><text class="lab" x="1346.79755" y="334">Sol</text><text class="small" x="1346.79755" y="360">$1.667 · 100.0%</text><circle cx="791.64425" cy="348" r="12" fill="#21a179"/><text class="lab" x="809.64425" y="334">Terra</text><text class="small" x="809.64425" y="360">$0.880 · 100.0%</text><circle cx="613.3646333333335" cy="348" r="12" fill="#e8872e"/><text class="lab" x="631.3646333333335" y="334">Luna</text><text class="small" x="631.3646333333335" y="360">$0.620 · 100.0%</text><text class="axis" x="805" y="900" text-anchor="middle">Measured inference cost · 60 runs</text><text class="axis" transform="translate(65 540) rotate(-90)" text-anchor="middle">Execution precision</text></svg>